# xmcd
#
# Track frame offsets: 
#        150
#        11812
#        23186
#        36432
#        49239
#        64218
#        76049
#        87577
#        101159
#        110989
#        123542
#        135650
#        147511
#        159581
#        172274
#        185448
#        198472
#        210005
#        222824
#        236379
#
# Disc length: 3332 seconds
#
# Revision: 1
# Processed by: cddbd v1.5.2PL0 Copyright (c) Steve Scherf et al.
# Submitted via: ExactAudioCopyFreeDBPlugin 1.0
#
DISCID=290d0214
DTITLE=Various Artist - Jazz Roads CD378 - Bebop - White Bebop Boys Vol.2 (19
DTITLE=47-48)
DYEAR=1900
DGENRE=Jazz
TTITLE0=Allen Eager With The Be Bop Boys - All Night, All Frantic
TTITLE1=Allen Eager With The Be Bop Boys - Donald Jay
TTITLE2=Allen Eager With The Be Bop Boys - Meeskite
TTITLE3=Allen Eager With The Be Bop Boys - And That's For Sure
TTITLE4=Stan Getz Quintet - Pardon My Bop
TTITLE5=Stan Getz Quintet - Pardon My Bop
TTITLE6=Stan Getz Quintet - Pardon My Bop
TTITLE7=Stan Getz Quintet - As I Live And Bop (Bopcycle)
TTITLE8=Stan Getz Quintet - Interlude In Bebop (Bopelbath)
TTITLE9=Stan Getz Quintet - Interlude In Bebop
TTITLE10=Stan Getz Quintet - Pinhead (Allen)
TTITLE11=Stan Getz Quintet - Pinhead (Diaper Pin)
TTITLE12=Allen Eager Quartet - Pogo Stick
TTITLE13=Allen Eager Quartet - Alley Talk (Bow Tie)
TTITLE14=Allen Eager Quartet - The Way You Look Tonight
TTITLE15=Brew Moore Quartet - Brew Blew
TTITLE16=Brew Moore Quartet - Brew Blew
TTITLE17=Brew Moore Quartet - No More Brew
TTITLE18=Brew Moore Quartet - More Brew
TTITLE19=Stan Getz Orchestra - Frosty (Getz)
EXTD=
EXTT0=
EXTT1=
EXTT2=
EXTT3=
EXTT4=
EXTT5=
EXTT6=
EXTT7=
EXTT8=
EXTT9=
EXTT10=
EXTT11=
EXTT12=
EXTT13=
EXTT14=
EXTT15=
EXTT16=
EXTT17=
EXTT18=
EXTT19=
PLAYORDER=
